# xmcd CD database file
#
# Track frame offsets:
#	150
#	18122
#	38354
#	56595
#	70066
#	90520
#	103316
#	115371
#	135645
#	154443
#	171479
#	183596
#	207336
#	224539
#	244539
#	257988
#	273692
#	295883
#	324573
#
# Disc length: 4698 seconds
#
# Revision: 0
# Processed by: cddbd v1.5.1PL2 Copyright (c) Steve Scherf et al.
# Submitted via: Feurio! 1.68 - http://www.feurio.com
#
DISCID=24125813
DTITLE=Koko Taylor - Let The Good Times Roll
DYEAR=1900
DGENRE=Blues
TTITLE0=It's a Dirty Job ( mit Lonnie Brooks )
TTITLE1=Blues Power ( mit Eric Clapton )
TTITLE2=Blues Hotel ( mit B.B. King )
TTITLE3=Spoonful
TTITLE4=I'm A Woman
TTITLE5=Hey Bartender
TTITLE6=Honky Tonk
TTITLE7=Tit For Tat
TTITLE8=Let The Good Times Roll
TTITLE9=I Can Love You Like A Woman
TTITLE10=Nitty gritty
TTITLE11=Please Don't Dog Me
TTITLE12=Queen Bee
TTITLE13=That's Why I m Crying
TTITLE14=Wang Dang Doddle
TTITLE15=What it Takes Blue Prelude
TTITLE16=Those Lonely Lonely Nights  ( mit Katie Webster and Lonnie Brooks )
TTITLE17=Born Under a Bad Sign ( mit Buddy Guy )
TTITLE18=If The Price Is Right ( mit Lonnie Brooks )
EXTD=
EXTT0=
EXTT1=
EXTT2=
EXTT3=
EXTT4=
EXTT5=
EXTT6=
EXTT7=
EXTT8=
EXTT9=
EXTT10=
EXTT11=
EXTT12=
EXTT13=
EXTT14=
EXTT15=
EXTT16=
EXTT17=
EXTT18=
PLAYORDER=
